<svg xmlns="http://www.w3.org/2000/svg" xmlns:xlink="http://www.w3.org/1999/xlink" width="383" height="307.97" viewBox="0 0 383 307.97"><defs><style>.a{fill:#155bcd;}.b{fill:#65cdf4;}.c{fill:#e5e6eb;}.d{fill:#fff;}.e{fill:#bfe9ff;}.f{clip-path:url(#a);}.g{fill:#05246a;}.h{fill:#206a05;}.i{fill:#4fd0ff;}.j{fill:#050f64;}.k{fill:#ea8096;}.l{fill:#83a8ff;}.m{fill:#0d47a1;}.n{fill:#f5bdc8;}.o{fill:#da5544;}.p{fill:#ff654f;}.q{fill:#f4bcc7;}.r{fill:#84a9ff;}.s{fill:#106405;}.t{fill:#d5fcdb;}.u{fill:#058105;}.v{fill:#011345;}</style><clipPath id="a"><circle class="a" cx="105.671" cy="105.671" r="105.671"/></clipPath></defs><g transform="translate(-104 -221.568)"><path class="b" d="M487,1510.587a2.331,2.331,0,0,1-.7,1.666,2.4,2.4,0,0,1-1.692.691H106.395a2.377,2.377,0,0,1-2.395-2.357,2.322,2.322,0,0,1,.7-1.666,2.4,2.4,0,0,1,1.692-.691H484.605A2.375,2.375,0,0,1,487,1510.587Z" transform="translate(0 -983.406)"/><g transform="translate(124.851 284.317)"><g transform="translate(0 0)"><path class="c" d="M528.345,494.595V721.516a6.791,6.791,0,0,1-6.793,6.793H199.261a6.791,6.791,0,0,1-6.793-6.793V494.595a6.793,6.793,0,0,1,6.793-6.793H521.552A6.793,6.793,0,0,1,528.345,494.595Z" transform="translate(-192.468 -487.802)"/><path class="d" d="M22.937,0H310.168A22.936,22.936,0,0,1,333.1,22.936V214.8a22.937,22.937,0,0,1-22.937,22.937H22.937A22.937,22.937,0,0,1,0,214.8V22.937A22.937,22.937,0,0,1,22.937,0Z" transform="translate(1.387 1.387)"/><path class="b" d="M528.345,494.595V511.21H192.468V494.595a6.793,6.793,0,0,1,6.793-6.793H521.552A6.793,6.793,0,0,1,528.345,494.595Z" transform="translate(-192.468 -487.802)"/><circle class="d" cx="2.547" cy="2.547" r="2.547" transform="translate(323.774 9.156)"/><circle class="d" cx="2.547" cy="2.547" r="2.547" transform="translate(314.773 9.156)"/><circle class="d" cx="2.547" cy="2.547" r="2.547" transform="translate(305.773 9.156)"/><g transform="translate(10.349 6.473)"><rect class="d" width="18.001" height="1.893"/><rect class="d" width="18.001" height="1.893" transform="translate(0 4.284)"/><rect class="d" width="18.001" height="1.893" transform="translate(0 8.568)"/></g></g></g><g transform="translate(187.119 251.474)"><g transform="translate(0 0)"><circle class="e" cx="105.671" cy="105.671" r="105.671"/><g class="f"><g transform="translate(12.151 -2.887)"><path class="g" d="M837.363,486.931a6,6,0,0,1,.035-1.529c.236-.847,1.057-1.632,1.106-2.507a2.613,2.613,0,0,0,0-.625.953.953,0,0,0-.217-.367c-.347-.49-.823-.943-1.2-1.419a9,9,0,0,1-1.749-3.008,1.381,1.381,0,0,1,.384-1.667c.55-.517-.349-1.391.031-2.064.5-.887,1.507-1.37,1.977-2.31a4.93,4.93,0,0,0,.439-2.44,23.633,23.633,0,0,1,.1-2.9,2.728,2.728,0,0,1,1.47-2.237c.48-.351.533-.4.517-.943a5.992,5.992,0,0,1,.122-1.778,4.365,4.365,0,0,1,1.107-2.082,4.9,4.9,0,0,0,.995-2.665,1.991,1.991,0,0,1,.507-1.2,2.843,2.843,0,0,0,.642-1.111,51.808,51.808,0,0,0,1.431-5.689,15.51,15.51,0,0,1,.709-2.075c.134-.344.5-1.682.932-1.876.2-.091.42.013.648-.092.685-.316,1.037-1.514,1.809-1.678.306-.065.568.169.837.251.451.136.6.038.99-.262a11.183,11.183,0,0,0,1.944-1.915,18.139,18.139,0,0,1,1.913-1.726c.5-.482,1-.972,1.5-1.451a9.776,9.776,0,0,1,1.448-1.289c.382-.192.352.027.65.206,1.053.633,1.781-1.681,2.438-2.143.083-.058.239-.045.329-.1.29-.193.469-.771.59-1.069.217-.537.252-1.365.834-.717a4.63,4.63,0,0,1,.716,1.541c.1.261.3,1.324.541,1.5.2.149.409.077.678.113,1.017.137,1.565,1.017,2.522,1.252.981.241,2.017-.436,2.789-.96.394-.267.844-.742,1.369-.661a5.892,5.892,0,0,1,1.83,1.048c.63-.25.876-.967,1.283-1.449a4.667,4.667,0,0,0,.784-1.44c.558-1.377.539-3.108,1.579-4.227a3.56,3.56,0,0,1,1.2-.8c.838-.413,1.616-.92,2.467-1.31.953-.437,2.368-.7,3.169-1.437.478-.438.327-1.407.323-1.96-.01-1.327-.1-2.7-.007-4.023.023-.332.161-.619.189-.956a12.178,12.178,0,0,0-.433-2.9,4.52,4.52,0,0,0-.672-2.292c-.474-.538-.917-.111-1.463.22-.713.432-1.534.827-2.2,1.324-.367.272-.768.876-1.2,1.054a4.056,4.056,0,0,1-1.286.024,4.474,4.474,0,0,1-1.576-.162,3.884,3.884,0,0,1-2.457-3.346c0-.228-.019-.458-.013-.686a15,15,0,0,1,.346-1.622,9.539,9.539,0,0,0-.036-2.354,16.017,16.017,0,0,0-.623-2.493,3.166,3.166,0,0,1-.342-1.414c.138-1.115,1.282-.943,2.059-.725.507.142,1.969.616,2.278-.047a4.131,4.131,0,0,0,.2-1.609,6.209,6.209,0,0,0-.35-2.586c-.521-.058-.709.66-1.183.781a11.582,11.582,0,0,1-2.479,0c-.711,0-1.423.022-2.135.018a1.8,1.8,0,0,1-1.128-.2,5.148,5.148,0,0,1-1-1.515c-.109-.191-.334-.817-.565-.9a13.845,13.845,0,0,0-.018,2.915,9.527,9.527,0,0,1-.17,1.454c-.047.312-.054.605-.116.919a2.506,2.506,0,0,0,0,.974,6.789,6.789,0,0,1,.121,1.432,3.466,3.466,0,0,0,.133,1.538.855.855,0,0,0,.632.483,1.836,1.836,0,0,1,.621.654,3.359,3.359,0,0,1,.52.75c.2.534.055,1.18.258,1.73a4.571,4.571,0,0,0,.591.868c.3.456.145,1.214.145,1.755,0,.881,0,1.762,0,2.642a5.527,5.527,0,0,0,.12,1.668,2.621,2.621,0,0,1,.21.921,2.1,2.1,0,0,0,.044.884,3.389,3.389,0,0,0,1.207,1.14c.34.231,1.362.95.982,1.451-.264.347-1.826.137-2.015.124a2.819,2.819,0,0,1-2.281-.953c-.849-.863-1.5-1.892-2.272-2.815a7.127,7.127,0,0,0-1.148-1.171q-.193-.176-.4-.34c-.291-.064-.406.215-.611.288a1.993,1.993,0,0,1-.648.027,13.128,13.128,0,0,0-3.631.24,8.562,8.562,0,0,0-2.34,1.163,5.873,5.873,0,0,0,3.734,1.984,8.566,8.566,0,0,1,3.671.98,2.871,2.871,0,0,1,1.183,1.511,8.105,8.105,0,0,1,.2,1.89c.115.832.664,1.575.7,2.42a10.656,10.656,0,0,1-2.976-1.661,21.688,21.688,0,0,1-2.426-2.926c-.162-.2-.742-1.042-1.175-.986-.318.041-.6.541-.773.731a1.774,1.774,0,0,1-2.451.474,11.964,11.964,0,0,1-1.564-.906c-.294-.2-.75-.366-.8-.768a11.344,11.344,0,0,0-2.042,3.783c-.268.675-.606,1.329-.867,2a.949.949,0,0,0-.056.715,7.357,7.357,0,0,0,.415,1.053,3.739,3.739,0,0,1,.184,1.533c-.061.774-.476,1.013-.829,1.633a1.883,1.883,0,0,0-.174,1.1c.019.924,0,1.849,0,2.773a22.191,22.191,0,0,1,.021,2.679c-.127,1-1.487,1.531-2.267,1.939a5.084,5.084,0,0,1-1.629.31,8.446,8.446,0,0,0-2.978,1.43c-.312.181-.51.561-.842.655-1.229.347-2.567-1.146-3.2-1.957a12.764,12.764,0,0,1-1.961-3.414,5.136,5.136,0,0,1-.181-1.924c.013-.761,0-1.523,0-2.285,0-.552-.228-1.192.43-1.341.856-.193,1.942-.066,2.693-.642a12.9,12.9,0,0,1,2.418-1.531l1.492-.681a1.127,1.127,0,0,0,1.048-.576,10.7,10.7,0,0,1-1.342-.694,4.8,4.8,0,0,1-1.271-1.48,8.523,8.523,0,0,1-1.058-3.3,8.747,8.747,0,0,1-.064-1.663,2.585,2.585,0,0,0-.356-1.324,8.577,8.577,0,0,1-.766-3.191,28.241,28.241,0,0,1,.016-3.5,3.894,3.894,0,0,1,.508-1.757,14.9,14.9,0,0,1,1.245-1.458c.112-.141.166-.3.261-.442a1.622,1.622,0,0,1,.778-.561,4.283,4.283,0,0,0,1.613-.879c.1-.124.181-.273.291-.4.258-.29.74-.453.974-.736a.809.809,0,0,0,.086-.714c-.159-.588-.82-.813-.823-1.486a1.669,1.669,0,0,1,.337-.889c.276-.435.5-.873.751-1.325a2.3,2.3,0,0,1,.877-.939,3.02,3.02,0,0,0,.805-.6c-.266-.205.548-1.571.51-1.758a13.166,13.166,0,0,0-.814-2.447,6.632,6.632,0,0,0-1.66-2.42c-.932-.856-2.19-1.341-3.18-2.124a1.966,1.966,0,0,1-.98-1.4,7.219,7.219,0,0,1,.08-2.053,4.511,4.511,0,0,0,.265-1.062,7.6,7.6,0,0,0-.162-.96c-.051-.372-.016-.646-.416-.835-.42-.2-.794.063-1.19.206a6.348,6.348,0,0,1-3.027.541,4.36,4.36,0,0,1-2.348-1.282c-.263-.228-.581-.649-.947-.669a1.15,1.15,0,0,0-.168.765,7.171,7.171,0,0,0,1.311,3.723c.714,1.216,1.967,2.207,2.537,3.51a3.784,3.784,0,0,1,.214,1.423,2.944,2.944,0,0,0,.848,2.447,6.668,6.668,0,0,0,1.324,1.138,1.872,1.872,0,0,1,.793.687c.115.237.031.328.08.565a1.927,1.927,0,0,0,.237.483,1.637,1.637,0,0,1-.26,1.769,2.9,2.9,0,0,1-2.107.412,13.767,13.767,0,0,1-4.076-1.165,5.533,5.533,0,0,1-2.536-1.985,4.782,4.782,0,0,1-.789-2.236,24.191,24.191,0,0,1-.464-2.413,5.859,5.859,0,0,0,.016-.779,9.908,9.908,0,0,0-1.332-2.533c-.736-1.271-1.548-2.543-2.214-3.856-.751-1.481-.626-2.949-.633-4.571a9.207,9.207,0,0,1,.065-2.576,13.565,13.565,0,0,1,1.391-2.222c.107-.2.069-.473.165-.639.164-.285.731-.139,1.009-.142a4.64,4.64,0,0,0,1.588-.206,5.517,5.517,0,0,1,.559-.248,1.521,1.521,0,0,1,.96.008q.782.622,1.5,1.317l1.341.964c.515.329,1.129.81,1.737.5.42-.212.642-.615,1.028-.865,1.364-.885,2.5,1.511,3.01,2.424-.15-1.356-.435-2.7-.707-4.041a18.434,18.434,0,0,0-1.036-4.121,4.437,4.437,0,0,0-.722-1.172,25.548,25.548,0,0,0-2.156-1.49A9.037,9.037,0,0,1,837.009,368a6.925,6.925,0,0,0-1.456-1.227,27.426,27.426,0,0,0-4.535-2.18,13.554,13.554,0,0,1-2.665-1.291c-.682-.553-.931-1.481-1.582-2.042-.409-.353-.881-.149-1.414-.184a3.422,3.422,0,0,1-1.746-.8,24.824,24.824,0,0,0-2.4-1.546c-.719-.409-1.433-.836-2.158-1.231-.335-.182-.71-.083-1.115-.226-.159-.056-.285-.165-.44-.235-.294-.135-.644-.189-.948-.3-.49-.18-.952-.445-1.444-.625a17.418,17.418,0,0,0-1.951-.518c-1.43-.337-2.908-.46-4.323-.86a6.072,6.072,0,0,1-1.118-.582,1.906,1.906,0,0,1-.925-.964c-.19-.366-.447-.689-.635-1.05-.357-.684-.548-1.562-1.383-1.714a31.916,31.916,0,0,0-4.314-.793c-.9-.035-2.18.3-2.908-.344-.645-.575-1.043-2.066-2.118-1.923-.662.088-1.252.692-1.862.964a8.069,8.069,0,0,1-1.779.6,18.71,18.71,0,0,0-2.542.743,9.335,9.335,0,0,1-2.757.988,9.008,9.008,0,0,1-3.2-1.072,3.906,3.906,0,0,0-2.739.37,7.911,7.911,0,0,1-1.45.653c-.125.021-.247-.024-.366-.01a12.822,12.822,0,0,0-1.746.57c-1.617.441-3.077,1.474-4.715,1.825a5.981,5.981,0,0,1-1.27.028c-.794,0-1.588-.008-2.382,0a2.08,2.08,0,0,1-1.786-.48,1.689,1.689,0,0,1-.3-1.3,19.891,19.891,0,0,0-.049-3.217c1.694-.735,3.711-.592,5.4-1.4,1.039-.5,2.136-.818,3.174-1.312a22.641,22.641,0,0,0,2.648-1.529c.337-.219,1.4-.889,1.381-1.381-.056-1.18,2.271-1.684,3.228-2.2a33.1,33.1,0,0,1,9.392-3.706,8.4,8.4,0,0,1,4.724.13c.785.364,1.471.852,2.284,1.175a16.658,16.658,0,0,0,7,1.387,19.023,19.023,0,0,0,4.863-.645c.672-.218,1.343-.484,2.011-.714a34.467,34.467,0,0,1,4.7-1.118,23.406,23.406,0,0,1,4.574-.256c1.536,0,3.083-.107,4.615.037,2.063.194,4.049.846,6.107,1.081,2.608.3,5.234.128,7.84.485,1.985.271,3.907.8,5.868,1.2.774.156,1.55.274,2.319.454a7.359,7.359,0,0,1,2.047.561,18.962,18.962,0,0,1,1.983,1.334c.028.412,1.166.543,1.424.836a22.813,22.813,0,0,0,3.151,2.835c3.251,2.541,6.846,4.647,10.08,7.216a88.741,88.741,0,0,1,10.836,10.447c5.875,6.572,11.8,13.462,16.192,21.129,3.565,6.229,5.531,13.227,8.684,19.668a81.274,81.274,0,0,0,4.636,8.451c1.6,2.478,3.358,4.842,4.9,7.356a45.883,45.883,0,0,1,5.283,12.529c1.449,5.624,3.282,11.151,4.487,16.834.792,3.736,2.065,7.435,2.013,11.293a57.178,57.178,0,0,1-1.72,12.1c-.55,2.349-1.228,4.666-1.764,7.021a69.783,69.783,0,0,1-2.141,8.14c-.948,2.65-2.15,5.24-3.273,7.82a40.089,40.089,0,0,1-2.193,4.759,30,30,0,0,1-2.1,2.77c-1.035,1.337-1.953,2.772-3.039,4.07-4.184,5.005-9.582,8.97-14.45,13.267-1.929,1.7-3.905,3.309-5.766,5.09-.908.869-1.873,1.662-2.855,2.446-.4.321-1.08,1.074-1.644,1.118-.251-.018-.665-.17-.72-.307a17.818,17.818,0,0,0-.792-1.706,15.288,15.288,0,0,0-1.48-2.213,2.053,2.053,0,0,0-.913-.778,6.258,6.258,0,0,0-2.164-.146,4.988,4.988,0,0,0-1.67.046,2.821,2.821,0,0,1-.11-1.316,5.732,5.732,0,0,1,.16-1.362,7.2,7.2,0,0,1,.818-2.091c.111-.18.255-.315.369-.489a3.765,3.765,0,0,0,.285-.63c.029-.07.1-.087.108-.162a6.983,6.983,0,0,1,.118-.929,8.578,8.578,0,0,0,.3-2.479,5.248,5.248,0,0,0-.02-.965,8.145,8.145,0,0,1-.308-.994,2.91,2.91,0,0,1,.436-1.972c.664-1.032,1.525-1.929,2.154-2.983a2.848,2.848,0,0,0,.281-.567c.16-.463.433-.83.633-1.274a7.438,7.438,0,0,0,.56-2.023,5.783,5.783,0,0,0-.166-1.918,13.757,13.757,0,0,1-.22-3.8c.05-.594.085-1.173.085-1.77a3.369,3.369,0,0,0,.018-.53,1.055,1.055,0,0,0-.445-.591,3.081,3.081,0,0,1-.836-1.017c-.255-.506-.432-1.083-.637-1.613q-.369-.964-.751-1.923-.226-.538-.434-1.083c-.2-.8.12-1.679-.036-2.483s-.756-.789-1.412-.751c-1.3.076-2.558.445-3.826.636a17.144,17.144,0,0,0-3.941,1.518c-1.161.491-2.357.913-3.511,1.421.148-.065-1.612.659-1.7.936-.113.368.1.8-.03,1.2a4.776,4.776,0,0,1-2.045,2.456c-.477.3-.971.555-1.433.88a3.965,3.965,0,0,1-.7.421,4.765,4.765,0,0,1-1.971.624,5.091,5.091,0,0,1-1.334-.125c-.216-.059-.417-.171-.633-.215a1.324,1.324,0,0,0-.24-.021,1.76,1.76,0,0,0-.972.4,14.219,14.219,0,0,1-1.751.905,1.041,1.041,0,0,1-1.306-.321c-.358-.361-.578-.812-.907-1.2a7.886,7.886,0,0,0-1.105-1.015c-.362-.289-.869-.779-1.36-.784a6.983,6.983,0,0,1-2.085-.1c-.227-.075-.459-.149-.684-.228a6.4,6.4,0,0,1-1.936-1.493c-.465-.391-1.066-.642-1.4-1.169-.194-.31-.454-.347-.733-.571a4.854,4.854,0,0,0-.5-.407,2.135,2.135,0,0,1-.361-.233,2.4,2.4,0,0,1-.58-1.114c-.111-.388-.194-1.146-.63-1.328a2.392,2.392,0,0,0-.722-.012,1.82,1.82,0,0,0-.3-.006A1.779,1.779,0,0,1,837.363,486.931Z" transform="translate(-705.615 -336.201)"/><path class="g" d="M599.785,984.08c-.279,1.568-1.139,3.005-1.487,4.571-.195.876-.527,2.142-.014,2.988.688,1.136,2.589,2.144,3.564,2.643,1.287.659,2.586,1.142,3.923,1.686.9.368.716.133.834.756.113.595-.105,1.308.03,1.949a9.364,9.364,0,0,0,2.151,4.041c.569.659,1.316,1.172,1.882,1.844a36.492,36.492,0,0,1,2.012,3.351,21.193,21.193,0,0,1,2.251,3.33c.464,1.114.407,2.353.9,3.478.789,1.816,2.327,3.151,3.206,4.928a7.9,7.9,0,0,1,1.049,2.754c.041.725-.132.97.319,1.611.89,1.263,2.632,2.05,3.893,2.892,1.335.893,2.108,2.3,3.544,3.083,3.453,1.872,7.44,1.573,11.186,1.722,1.164.046,2.052.662,3.216.732a13.222,13.222,0,0,0,4.9-.578,7.351,7.351,0,0,0,3.368-2.176,17.189,17.189,0,0,0,1.705-1.8,1.818,1.818,0,0,1,1.334-.347,9.584,9.584,0,0,0,2.666-.737,12.161,12.161,0,0,1,2.5-.527,6.4,6.4,0,0,0,1.675-.389,22.88,22.88,0,0,0,4.355-1.6c1.328-.781,2.512-2.373,3.975-2.84.458-.146,1.1.183,1.517-.057.818-.473.329-2.711.355-3.5.018-.536-.086-.868.307-1.253.218-.214.7-.322.967-.531.584-.452,1.067-1.057,1.629-1.54a17.373,17.373,0,0,0,1.619-1.224c.527-.6.244-1.288.391-2.055a13.364,13.364,0,0,0,.337-1.49c.107-1.452-.81-2.229-1.828-3.075-2.944-2.442-6.083-4.482-9.955-4.615a6.715,6.715,0,0,1-1.484-.039,7.716,7.716,0,0,1-1.187-.865c-1.244-.811-2.78-.788-4.19-1.154-2.114-.548-2.479-2.8-3.464-4.514a16.986,16.986,0,0,0-5.92-6.464,14.023,14.023,0,0,0-3.093-1.162,28.3,28.3,0,0,1-5.329-2.406,15.733,15.733,0,0,0-3.182-1.555c-.635-.171-1.226-.1-1.82-.249s-1.106-.808-1.594-1.188c-1.26-.981-2.526-1.938-3.757-2.958a5.079,5.079,0,0,0-2.013-1.273c-.387-.085-.6,0-.958-.172a6.883,6.883,0,0,0-1.158-.643,21.193,21.193,0,0,1-5.069-1.951c-1.262-.788-2.5-1.609-3.785-2.361a10.087,10.087,0,0,0-3.245-1.648c-1.084-.15-1.073.708-1.922.975-.585.184-1.356-.1-1.962-.013-.354.79,0,1.7-.336,2.492a2.959,2.959,0,0,1-.67.826,29.628,29.628,0,0,1-1.992,2.279,11.353,11.353,0,0,1-2.114,1.167A7.663,7.663,0,0,0,599.785,984.08Z" transform="translate(-576.846 -821.761)"/><path class="h" d="M600.074,854.862c2.27-.168,4.27,1.251,6,2.575a7.4,7.4,0,0,1,2.2,2.11c.188.388.077.713.217,1.11a8.235,8.235,0,0,0,.9,1.266,1.8,1.8,0,0,1,.6.948q.059.792.109,1.585a6.276,6.276,0,0,0,2.459,3.3c.465.358,1.114.714,1.528,1.1.32.3.438.778.762,1.078.528.489.989.346,1.636.442,1.485.22,2.945.481,4.451.59a1.893,1.893,0,0,1,1.041.29,22.233,22.233,0,0,1,3,1.3c.629.45,1.166.925,1.811,1.367.55.377.894.939,1.577,1.087-.134-.218-.42-.377-.54-.627-.153-.317-.029-.811-.109-1.148a3.806,3.806,0,0,0-.841-1.531,8.032,8.032,0,0,0-1.774-1.061,12.539,12.539,0,0,1-1.576-1.126c-.669-.545-1.484-.809-2.136-1.368a7.18,7.18,0,0,0-1.948-1.313,131.15,131.15,0,0,1-3.708-1.878c-.441-.426-.493-1.524-.72-2.119a9.831,9.831,0,0,0-.963-2.009,9.07,9.07,0,0,0-3.226-3.258c-1.758-.975-3.551-2.046-5.227-3.154-.793-.525-.968-1.19-1.477-1.967a2.107,2.107,0,0,0-2.407-1.095A6.578,6.578,0,0,1,600.074,854.862Z" transform="translate(-578.423 -729.886)"/><path class="g" d="M532.439,552.551a17.84,17.84,0,0,0-2.1-3.923c-.562-.964-1.486-2.136-1.521-3.277-.047-1.515,1.383-2.311,1.662-3.593.262-1.2.913-3.362-.25-4.264-1.074-.832-2.807-1.028-4.106-1.394a4.523,4.523,0,0,1-1.717-.926,2.862,2.862,0,0,1-1.644-2.334,31.164,31.164,0,0,1,.014-3.148c-.016-1.277-.21-2.046-1.459-2.6-.967-.432-1.922-.536-2.411-1.576a11.574,11.574,0,0,1-.57-3.466c-.115-1.319-.068-2.635-.065-3.956,0-1.081.005-2.162,0-3.243a5.226,5.226,0,0,1,.035-1.585c.239-.558.987-.771,1.5-.959a11.114,11.114,0,0,1,2.337-.59,13.835,13.835,0,0,1,2.165-.037c.367-.067.6-.27.949-.349a18.275,18.275,0,0,1,3.234.01,7.329,7.329,0,0,1,3.968,1.7,3.006,3.006,0,0,1,1.186,2.224,30.9,30.9,0,0,1,.067,5.582,3.361,3.361,0,0,0,.305,1.854,1.945,1.945,0,0,0,2.566,1.131,37.783,37.783,0,0,0,.032-6.119c0-.489-.258-1.48.136-1.829.5-.441,2.651-.034,3.358-.033,1.054,0,3.815.56,4.442-.549.229-.405.125-.989.242-1.439.2-.785.471-1.553.668-2.347.19-.766.358-2.246.981-2.774.454-.385.678-.284,1.271-.287a6.442,6.442,0,0,0,2.56-.791c2.677-1.166,5.181-2.717,7.955-3.655a8.466,8.466,0,0,0,2.525-.859,2.811,2.811,0,0,1,1.789-.832c.891-.025,1.8-.007,2.691.02a7.924,7.924,0,0,0,3.354-.771c.51-.214,1.2-.912,1.772-.868a6.66,6.66,0,0,0-.014-2.551c-.087-.59-.584-1.923-.2-2.533.491-.78,2.031-.351,2.846-.364a27.165,27.165,0,0,1,4.156.322c.582.079,2.165,0,2.647.352.523.377.283,1.465.278,2a14.277,14.277,0,0,0,.051,3.441c1.766.517,2.569-2.524,2.569-3.841,0-1.017-.5-1.193-1.036-1.9a2.32,2.32,0,0,1-.625-1.139,14.153,14.153,0,0,1-.637-4.049,3.657,3.657,0,0,0-.334-2.013c-.606-1.124-1.911-1.744-2.553-2.871a2.379,2.379,0,0,1-.334-1.468,18.834,18.834,0,0,1,.575-6.179,6.481,6.481,0,0,0,.414-2.3,4.231,4.231,0,0,0-.746-2.24,4.974,4.974,0,0,0-.887-1.481c-.6-.582-1.082-.134-1.721-.42-.8-.361-1.5-1.8-1.857-2.628-1.117.292-2.151,2.368-2.816,3.206-.362.457-.5,1.064-.869,1.494-.542.63-1.537.768-2.272,1.124-.914.442-.785.585-.761,1.569.039,1.577-.131,4.345-1.928,4.885a7.935,7.935,0,0,1-1.75-.026c-1.093.033-1.5-.182-1.91-1.367-.115-.336-.069-.878-.2-1.166-.161-.354-.267-.266-.454-.551-.491-.751-.669-1.582-1.223-2.351a8.308,8.308,0,0,1-1.254-2.037c-.369-.959-.9-1.97-1.232-2.93a6.654,6.654,0,0,1,.267-3.865,5.066,5.066,0,0,1,2.026-2.548c.62-.38,1.148-1.042,1.835-1.233a11.815,11.815,0,0,1,2.616.022H565.3q2.517,0,5.034,0a6.449,6.449,0,0,0,1.536,0c1.065-.311,1.509-1.972,1.973-2.892.5-.991-.044-.478.7-.624a6.553,6.553,0,0,1,2.391.794c1.189.6,1.373,1.67,1.611,2.868a14.044,14.044,0,0,1,.566,3.133,6.547,6.547,0,0,0,.175,2.855c.154.314.352.8.818.626.488-.185.245-1.13.353-1.47.32-1.006,1.107-.6,1.887-.971a2.691,2.691,0,0,0,1.291-2.056,8.033,8.033,0,0,0-.159-3.144c-.4-1.193-.585-2.388-.909-3.605-.545-2.045-.2-4.416-.234-6.514-.026-1.448-.117-1.7,1.372-2.461.8-.405,1.586-1.212,2.408-1.529A6.679,6.679,0,0,1,592,449.147a10.52,10.52,0,0,1,2.854,4.959c.575,2.824-.552,5.748-1.488,8.355-.276.768-.333,1.511-.544,2.28-.344,1.252-1.036,2.375-1.355,3.637a14.194,14.194,0,0,0-.107,3.466,10.567,10.567,0,0,0,.1,3.051c.457,1.522,1.712,2.793,2.323,4.273a3.575,3.575,0,0,0,.85,1.584,4.461,4.461,0,0,0,2.74,1.007c.965-1.856.421-5.083.421-7.032,0-1.016.009-2.032,0-3.047a3.392,3.392,0,0,1,.992-2.835,10.119,10.119,0,0,1,4.508-1.617,7.911,7.911,0,0,0,2.095-.605l2.281-.606a6.4,6.4,0,0,0,2.352-.673c.25-.351-.073-1.747.01-2.09.3-1.224,1.4-2.378,1.965-3.525.278-.563,1.256-2.051.9-2.806-.228-.482-.935-.38-1.265-.642a11.746,11.746,0,0,1-1.529-2.435c-.9-1.517-1.332-3.239-2.144-4.809-.7-1.354-.869-2.867-1.543-4.21-.352-.7-.889-1.3-1.25-2-.412-.794-.367-1.549-1.436-1.675a61.15,61.15,0,0,0-7.211.014,14.555,14.555,0,0,1-2.534-.033,17.593,17.593,0,0,1-3.878-1.359c-2.105-.9-4.858-1.441-6.95-.349a14.7,14.7,0,0,0-2.8,2.092c-.383.345-.448.609-1.047.662a4.455,4.455,0,0,1-2.027-.684,9.805,9.805,0,0,1-2.68-1.3c-.961.263-1.782,1.632-2.364,2.386-.458.593-.575.711-1.343.3-.724-.384-1.509-2.157-2.461-2.117-.821.035-1.114,1.193-1.781,1.359a4.325,4.325,0,0,1-1.362-.276,2.8,2.8,0,0,1-1.337-1.626c-.1-.369.021-.907-.037-1.3-.086-.576-.235-1.075-.265-1.649a2.4,2.4,0,0,1,.282-1.793c1.205-1.606,2.949-2.791,4.06-4.488a4.075,4.075,0,0,0,.5-2.532c0-.576.109-1.851-.314-2.321-.922-1.028-3.805.964-4.581,1.409a1.928,1.928,0,0,1-2.272.048c-.736-.354-1.3-.984-2-1.341a5.034,5.034,0,0,0-2.387-.225c-2.232.017-4.129.976-6.391.523a8.772,8.772,0,0,0-1.115,2.964c-.5,1.83-.937,3.675-1.537,5.478-.422,1.267-1.154,1.637-1.994,2.723-.621.8-7.876,9.436-8.142,9.99-.818,1.707-2.6,2.213-3.686,3.573q.059-.207-.143-.243a18.12,18.12,0,0,1-2.037,2.94,21.12,21.12,0,0,1-2.655,2.2,31.438,31.438,0,0,0-5.091,4.648,26.742,26.742,0,0,0-3.94,7.064c-.609,1.446-1.478,2.772-2.176,4.154-1.616,3.2-3.737,6.17-5.236,9.435-.722,1.573-1.093,3.3-1.771,4.845-.919,2.093-2.827,3.365-2.819,5.8.005,1.858.943,3.317,1.3,5.03a23.7,23.7,0,0,1,.073,4.649c-.012,2.386.309,4.712.3,7.093a22.4,22.4,0,0,0,.932,5.035,3.647,3.647,0,0,0,.24,1.116c.153.274.436.4.6.655.848,1.313.37,2.858,1.777,3.994.616.5,1.3.666,1.708,1.356a27.146,27.146,0,0,1,1.19,2.711c.955,2.115,1.943,3.768,1.952,6.137a6.335,6.335,0,0,0,1.279,3.578,5.636,5.636,0,0,1,.961,3.456,4.483,4.483,0,0,0,.681,2.865c.712,1.067,1.754,1.442,2.242,2.7a17.564,17.564,0,0,1,.679,2.717,12.79,12.79,0,0,0,1.344,2.865c.524,1.108.572,2.373,1.173,3.482C527.316,552.8,531.927,556.8,532.439,552.551Z" transform="translate(-508.213 -404.719)"/></g></g></g></g><g transform="translate(197.746 221.568)"><path class="i" d="M558.343,242.9a28.735,28.735,0,0,0-2.8-6.777,29.081,29.081,0,0,0-5.318-6.777,28.387,28.387,0,0,0-12.06-6.774,29.416,29.416,0,0,0-15.259,0,28.382,28.382,0,0,0-12.06,6.774,29.091,29.091,0,0,0-5.319,6.777,28.744,28.744,0,0,0-2.8,6.777,28.176,28.176,0,0,0-.979,6.774v0a28.147,28.147,0,0,0,.667,6.777,29.234,29.234,0,0,0,1.56,4.919l22.481,54.052a4.413,4.413,0,0,0,8.149,0L557.1,261.375a29.23,29.23,0,0,0,1.559-4.919,28.142,28.142,0,0,0,.668-6.777v0A28.206,28.206,0,0,0,558.343,242.9Zm-18.275,7.963a9.878,9.878,0,0,1-6.32,6.774.009.009,0,0,1-.007,0,9.895,9.895,0,0,1-6.4,0,.008.008,0,0,1-.007,0,9.842,9.842,0,0,1-6.653-9.327,9.779,9.779,0,0,1,.949-4.224v0a9.865,9.865,0,0,1,17.823,0v0a9.784,9.784,0,0,1,.949,4.224A9.958,9.958,0,0,1,540.068,250.865Z" transform="translate(-501.749 -221.568)"/></g><g transform="translate(239.531 287.916)"><g transform="translate(126.686 230.118)"><path class="j" d="M1238.918,1486.208h-22.379a3.447,3.447,0,0,1,.629-2.1,3.544,3.544,0,0,1,2.243-1.194,21.527,21.527,0,0,1,2.6-.15,13.747,13.747,0,0,0,6.071-1.759,20.593,20.593,0,0,1,2.916-1.59l6.1.16a6.987,6.987,0,0,1,1.63,3.289A12.313,12.313,0,0,1,1238.918,1486.208Z" transform="translate(-1216.539 -1479.417)"/></g><g transform="translate(176.315 230.118)"><path class="j" d="M1449.486,1486.208h-22.379a3.445,3.445,0,0,1,.629-2.1,3.544,3.544,0,0,1,2.243-1.194,21.523,21.523,0,0,1,2.6-.15,13.748,13.748,0,0,0,6.072-1.759,20.565,20.565,0,0,1,2.916-1.59l6.1.16a6.987,6.987,0,0,1,1.63,3.289A12.318,12.318,0,0,1,1449.486,1486.208Z" transform="translate(-1427.107 -1479.417)"/></g><path class="j" d="M1329.164,971.349c-.256-6.013-46.991-13.459-47.4-7.453,0,0-5.99,47.138-5.99,47.138q-.461,3.789-.576,7.608l-1.955,65.332,7.807-.048,21.5-88.486,9.337,33.144,10.971,55.122,7.748.206S1329.3,974.5,1329.164,971.349Z" transform="translate(-1133.194 -853.587)"/><g transform="translate(77.722 40.637)"><g transform="translate(0 39.512)"><path class="k" d="M1011.334,843.129l5.114.028-.526,5.339-5.029-.894a2.249,2.249,0,1,1,.441-4.473Z" transform="translate(-1008.794 -843.126)"/></g><path class="d" d="M1038.541,721.731l.395-6.249a162.23,162.23,0,0,0,20.547-.931,60.349,60.349,0,0,0,9.574-1.967,42.135,42.135,0,0,0,8.635-3.617,53.7,53.7,0,0,0,14.271-12.2c2.1-2.469,4.084-5.1,6-7.808l1.418-2.053,1.381-2.1.689-1.049.67-1.072,1.34-2.141c.065-.1.133-.209.2-.309a7.55,7.55,0,0,1,2.251-2.149,8.366,8.366,0,0,1,9,.079l.018.011a7.962,7.962,0,0,1,3.532,5.379,8.222,8.222,0,0,1-1.616,6.38l-1.726,2.139-.863,1.068-.89,1.057c-.6.7-1.182,1.409-1.785,2.108l-1.841,2.081c-2.488,2.756-5.085,5.454-7.87,8.026a78.972,78.972,0,0,1-9.01,7.178,57.382,57.382,0,0,1-10.332,5.591,52.918,52.918,0,0,1-11.229,3.188,69.832,69.832,0,0,1-11.242.941c-3.692.029-7.317-.165-10.894-.46S1042.054,722.163,1038.541,721.731Z" transform="translate(-1031.53 -676.504)"/><path class="l" d="M1100.407,683.791l.687-1.049.671-1.071,1.34-2.141c.065-.1.132-.209.2-.309a7.537,7.537,0,0,1,2.25-2.149,9.468,9.468,0,0,1,.931-.5l-.051-.319a9.03,9.03,0,0,0-1.043.554,7.84,7.84,0,0,0-2.344,2.239c-.072.1-.142.213-.209.319l-2.007,3.208-.688,1.048-.261.4.2.259Zm-4.322,6.27-.237-.209c-1.444,1.97-2.826,3.738-4.186,5.353l.207.24C1093.325,693.718,1094.724,691.914,1096.084,690.061Zm20.66-.952a8.572,8.572,0,0,0,1.674-6.62,8.23,8.23,0,0,0-1.25-3.19,8.318,8.318,0,0,0-2.419-2.4l-.019-.012a8.683,8.683,0,0,0-4.94-1.4l.054.312a8.4,8.4,0,0,1,4.716,1.35l.018.012a7.954,7.954,0,0,1,3.532,5.378,8.212,8.212,0,0,1-1.616,6.38l-.778.965.342.074Zm-24.058,23.727a78.8,78.8,0,0,0,9.047-7.207c2.532-2.339,5.113-4.971,7.893-8.049l1.842-2.084,0,0-.2-.244-.038.044-1.841,2.082c-2.488,2.755-5.084,5.453-7.869,8.026a79.218,79.218,0,0,1-9.011,7.177q-1.843,1.247-3.79,2.37l.122.29Q1090.785,714.124,1092.686,712.836Zm-24.221,8.892a72.746,72.746,0,0,1-8.756.57c-3.691.03-7.316-.165-10.895-.46q-2.174-.181-4.33-.406l-.267.286c1.614.169,3.111.309,4.573.431,4.138.341,7.609.486,10.923.46a72.935,72.935,0,0,0,8.76-.567C1068.468,721.938,1068.465,721.834,1068.464,721.728Zm-9.332-8.2a60.437,60.437,0,0,0,9.574-1.967,41.215,41.215,0,0,0,12.649-6.179l-.246-.209a40.917,40.917,0,0,1-12.492,6.087,59.45,59.45,0,0,1-9.524,1.956q-1.358.174-2.74.3l-.072.322Q1057.715,713.712,1059.132,713.532Zm-5.73.24c-5.089.354-10.217.386-14.817.378h-.293l-.21,3.332.321-.131.182-2.889c4.99.008,9.966-.039,14.82-.377Z" transform="translate(-1031.178 -675.485)"/></g><path class="d" d="M1355.031,740.243c-17.362,5.12-28.725,8.115-47.942-1.947l1.658-44.877.273-6.7.1-2.459.192-4.736c.024-.663.078-1.318.161-1.961a20.959,20.959,0,0,1,13.428-16.931,19.993,19.993,0,0,1,2.107-.665,20.867,20.867,0,0,1,7.743-.51q1.058.128,2.087.338a25.319,25.319,0,0,1,4.3,1.278,25.661,25.661,0,0,1,16.24,24.008l0,.648-.015,2.462-.009,3.113Z" transform="translate(-1159.061 -622.482)"/><path class="l" d="M1308.878,685.43l-.011.264-.272,6.7-.234,6.353c.1,0,.208,0,.313-.006l.234-6.336.272-6.7.011-.248Zm3.08,54.129c-.054.086-.11.176-.168.268a47.722,47.722,0,0,0,18.021,4.42l.083,0c.017-.1.033-.207.052-.311A47.02,47.02,0,0,1,1311.958,739.558Zm43.868-49.267.01-3.112.016-2.462,0-.648a25.957,25.957,0,0,0-3.237-12.7l-.327.062a25.59,25.59,0,0,1,3.252,12.632l0,.648-.016,2.462-.01,3.113-.323,48.938q-2.487.734-4.821,1.4l.091.295c1.537-.432,3.139-.9,4.819-1.4l.223-.066Zm-30.733-31.64a20.393,20.393,0,0,0-2.14.674,21.208,21.208,0,0,0-13.629,17.185c-.035.278-.066.562-.091.847l.3.158c.028-.324.061-.646.1-.965a20.964,20.964,0,0,1,13.428-16.931,20.354,20.354,0,0,1,2.107-.664,20.847,20.847,0,0,1,7.253-.563l.2-.294c-.52-.056-1.044-.091-1.562-.107A21.029,21.029,0,0,0,1325.092,658.652Zm-17.329,56.229-.466,12.6.316-.076.46-12.481Z" transform="translate(-1159.221 -621.468)"/><g transform="translate(161.165 44.307)"><path class="m" d="M1372.942,691.779q-1.413-.358-2.826-.722a214.029,214.029,0,0,0-7.2,61.778q2.184,3.123,4.456,6.135,1.806-3.235,3.7-6.362A210.765,210.765,0,0,1,1372.942,691.779Z" transform="translate(-1362.825 -691.057)"/></g><g transform="translate(158.651)"><g transform="translate(5.191 37.314)"><path class="a" d="M1390.422,662.664l-7.663,11.906-2.552-5.818-5.821,4.8-.2-11.328a20,20,0,0,1,2.107-.665l.56.236,3.84,4.323,5.43-4.731A25.33,25.33,0,0,1,1390.422,662.664Z" transform="translate(-1374.184 -661.386)"/></g><g transform="translate(2.354 6.923)"><path class="n" d="M1382.052,610.141l.169,15.459a8.571,8.571,0,0,0,10.072-.11l-.169-15.458Z" transform="translate(-1377.361 -591.744)"/><path class="k" d="M1382.052,610.141l.077,6.992a8.154,8.154,0,0,0,2.261.493q.38.026.761.022a9.06,9.06,0,0,0,7.019-3.469l-.045-4.149Z" transform="translate(-1377.361 -591.744)"/><path class="n" d="M1362.158,541.434l.317,6.456.128,2.613a7.174,7.174,0,0,0,6.646,6.809,8.043,8.043,0,0,0,3.449-.5c.249-.095.494-.2.731-.321.148-.073.293-.149.436-.231a7.882,7.882,0,0,0,3.2-3.475c.592-1.257,1.146-2.642,1.674-4.1.3-.835.6-1.7.886-2.57a10.914,10.914,0,0,0-2.444-11.057c-2.417-2.476-5.43-3.218-9.081-2.1A8.434,8.434,0,0,0,1362.158,541.434Z" transform="translate(-1362.148 -532.441)"/></g><path class="j" d="M1372.52,521.525c2.519-7.891-1.521-9.241-1.522-9.241a4.7,4.7,0,0,0,.107-1.108,3.333,3.333,0,0,0-.315-1.122c-1.2-2.53-3.886-2.159-6.209-2.133a4.463,4.463,0,0,1-3.323-1.245c-.99-.941-1.606-2.212-2.738-3.016-1.732-1.229-4.25-.4-5.407,1.225a4.133,4.133,0,0,0-.612,1.273,8.451,8.451,0,0,0,1.218,7.364c1.454,1.8,4.05,2.311,6.217,2.571.717.086,1.438.143,2.158.2a5.792,5.792,0,0,0,5.4-2.794c-.849.843-1.226,3.57-.495,5.277s.027,4.774.027,4.774l.264-.042C1368.975,520.983,1370.837,520.089,1372.52,521.525Z" transform="translate(-1352.16 -503.07)"/><path class="j" d="M1362.331,550.964a29.9,29.9,0,0,0-1.216,7.964s-1.262-5.285-.114-8.99Z" transform="translate(-1358.549 -538.892)"/><ellipse class="n" cx="3.774" cy="3.359" rx="3.774" ry="3.359" transform="translate(14.829 17.121) rotate(-0.628)"/></g><g transform="translate(160.635 132.242)"><g transform="translate(15.383)"><path class="b" d="M1448.209,1089.861h-19.524a2.842,2.842,0,0,1-2.838-2.838v-10.274a12.6,12.6,0,1,1,25.2,0v10.274A2.841,2.841,0,0,1,1448.209,1089.861Zm-18.846-3.516h18.166v-9.6a9.083,9.083,0,1,0-18.166,0Z" transform="translate(-1425.847 -1064.149)"/></g><path class="b" d="M19.192,0H36.773A19.192,19.192,0,0,1,55.965,19.192v0A19.192,19.192,0,0,1,36.772,38.384H19.192A19.192,19.192,0,0,1,0,19.192v0A19.192,19.192,0,0,1,19.192,0Z" transform="translate(0 13.259)"/><g transform="translate(0 16.555)"><path class="j" d="M1412.347,1152.16l-23.785-4.439-23.785,4.439a3.838,3.838,0,0,1-4.2-3.821v-13.95h55.965v13.95A3.837,3.837,0,0,1,1412.347,1152.16Z" transform="translate(-1360.58 -1134.389)"/></g><path class="b" d="M1360.58,1120.4v13.95a3.837,3.837,0,0,0,4.2,3.82l23.785-2.241,23.785,2.241a3.837,3.837,0,0,0,4.2-3.82V1120.4Z" transform="translate(-1360.58 -1107.144)"/><path class="o" d="M1460.19,1165.78v8.015a2.375,2.375,0,0,0,2.375,2.375h4.26a2.375,2.375,0,0,0,2.375-2.375v-8.015Z" transform="translate(-1436.713 -1141.826)"/><path class="p" d="M1473.365,1188.468a1.831,1.831,0,0,0-1.831,1.831v4.982a1.831,1.831,0,1,0,3.663,0V1190.3A1.831,1.831,0,0,0,1473.365,1188.468Z" transform="translate(-1445.383 -1159.167)"/><g transform="translate(12.563 10.658)"><rect class="p" width="8.79" height="2.6"/></g><g transform="translate(34.429 10.658)"><rect class="p" width="8.79" height="2.6"/></g></g><g transform="translate(175.961 43.567)"><g transform="translate(9.727 86.136)"><path class="q" d="M1467.094,1058.14l1.869-4.761,4.791,2.414-2.646,4.369a2.249,2.249,0,1,1-4.014-2.023Z" transform="translate(-1466.87 -1053.379)"/></g><path class="d" d="M1443.454,777.72l-5.687-2.619a162.242,162.242,0,0,0,6.533-19.5,60.36,60.36,0,0,0,1.614-9.64,42.127,42.127,0,0,0-.263-9.358,53.706,53.706,0,0,0-6.238-17.707c-1.547-2.848-3.285-5.646-5.124-8.406l-1.4-2.062-1.459-2.044-.731-1.02-.758-1.012-1.514-2.021c-.073-.1-.147-.2-.216-.3a7.552,7.552,0,0,1-1.194-2.874,8.368,8.368,0,0,1,3.317-8.37l.017-.012a7.962,7.962,0,0,1,6.29-1.358,8.221,8.221,0,0,1,5.37,3.806l1.374,2.38.685,1.19.665,1.211c.441.809.889,1.61,1.324,2.424l1.279,2.467c1.675,3.314,3.256,6.708,4.652,10.233a79.014,79.014,0,0,1,3.45,10.991,57.374,57.374,0,0,1,1.494,11.652,52.916,52.916,0,0,1-1.071,11.624,69.873,69.873,0,0,1-3.173,10.826c-1.3,3.455-2.79,6.766-4.354,10S1445.123,774.6,1443.454,777.72Z" transform="translate(-1426.564 -688.936)"/><path class="l" d="M1430.463,705.361l-.731-1.019-.758-1.011-1.514-2.022c-.072-.1-.147-.2-.216-.3a7.539,7.539,0,0,1-1.194-2.873,9.5,9.5,0,0,1-.132-1.049l-.317-.067a9.114,9.114,0,0,0,.141,1.173,7.844,7.844,0,0,0,1.244,2.993c.071.1.148.209.222.31l2.27,3.027.729,1.019.277.387.314-.1Zm4.292,6.291-.28.145c1.317,2.057,2.469,3.983,3.486,5.833l.3-.106C1437.172,715.544,1435.994,713.589,1434.755,711.652Zm6.554-19.616a8.572,8.572,0,0,0-5.572-3.947,8.236,8.236,0,0,0-3.426.017,8.32,8.32,0,0,0-3.109,1.393l-.018.013a8.685,8.685,0,0,0-3.086,4.1l.311.062a8.4,8.4,0,0,1,2.958-3.913l.018-.012a7.954,7.954,0,0,1,6.289-1.357,8.213,8.213,0,0,1,5.369,3.806l.62,1.073.192-.292Zm13.467,30.991a78.821,78.821,0,0,0-3.463-11.036c-1.27-3.2-2.8-6.56-4.665-10.262l-1.281-2.469,0,0-.3.1c.009.017.019.034.027.052l1.279,2.468c1.673,3.314,3.255,6.708,4.652,10.232a79.194,79.194,0,0,1,3.449,10.991q.5,2.169.846,4.39l.315-.009Q1455.293,725.264,1454.777,723.028Zm-.431,25.8a72.7,72.7,0,0,1-2.622,8.374c-1.3,3.455-2.79,6.766-4.354,10q-.952,1.964-1.938,3.893l.171.353c.739-1.445,1.409-2.791,2.049-4.111,1.809-3.737,3.195-6.922,4.364-10.024a72.919,72.919,0,0,0,2.627-8.376C1454.544,748.9,1454.445,748.863,1454.346,748.826Zm-11.007,5.754a60.51,60.51,0,0,0,1.615-9.64,41.235,41.235,0,0,0-1.207-14.025l-.283.154a40.9,40.9,0,0,1,1.178,13.846,59.429,59.429,0,0,1-1.606,9.59q-.327,1.329-.7,2.666l.275.183Q1443,755.966,1443.339,754.579Zm-1.841,5.432c-1.5,4.874-3.321,9.669-4.985,13.959l-.105.274,3.033,1.4c0-.119-.005-.235-.007-.347l-2.63-1.211c1.806-4.652,3.554-9.311,4.987-13.961Z" transform="translate(-1425.602 -687.918)"/></g><g transform="translate(29.594 225.481)"><g transform="translate(0.956)"><path class="q" d="M808.649,1459.813c-.012,6.064,9.024,9.8,10.657,10.111,1.074.2,1.453-1.169,1.63-2.106a9.019,9.019,0,0,1-4.453-2.973c-2.9-3.153-2.977-5.1-2.977-5.1l-4.848.059Z" transform="translate(-808.649 -1459.745)"/></g><g transform="translate(0 0.068)"><path class="j" d="M805.55,1460.033c.229,5.986,8.456,9.31,10.088,9.616a1.978,1.978,0,0,0,2.2-1.611c.441.127,1.739.5,2.139.668,1.46.623.218,1.747-1.052,2.3a7.038,7.038,0,0,1-4.115.18c-3.1-.582-7.263-4.058-8.16-5.419l.075,5.621-2.039.025-.09-6.773C804.557,1461.529,805.468,1460.155,805.55,1460.033Z" transform="translate(-804.594 -1460.033)"/></g></g><g transform="translate(5.019 225.048)"><g transform="translate(1.359)"><path class="q" d="M706.1,1457.918c-.279,6.057,8.584,10.193,10.2,10.571,1.064.25,1.5-1.1,1.721-2.033a9.015,9.015,0,0,1-4.318-3.166c-2.754-3.278-2.75-5.227-2.75-5.227l-4.846-.155Z" transform="translate(-706.092 -1457.909)"/></g><g transform="translate(0 0.008)"><path class="j" d="M701.691,1457.945c-.035,5.991,8.037,9.674,9.654,10.051a1.978,1.978,0,0,0,2.268-1.513c.434.147,1.715.573,2.108.762,1.431.687.141,1.754-1.153,2.256a7.039,7.039,0,0,1-4.119,0c-3.076-.718-7.077-4.375-7.913-5.774l-.172,6.1h-2.038l.209-7.319C700.634,1459.4,701.6,1458.063,701.691,1457.945Z" transform="translate(-700.326 -1457.945)"/></g></g><path class="b" d="M725.929,976.515l0-.014a8.8,8.8,0,0,0-.056-1.957h0l0-.026c-.042-.3-9.851-51.422-9.851-51.422s-32.655,0-32.655,0c-5.531,20.07-6.012,39.675-.024,53.612h0l1.935,72.478,5.259.157,11.332-81.7a51.863,51.863,0,0,0,6.464,10.437l.983,71.566,5.525-.077S725.905,976.789,725.929,976.515Z" transform="translate(-679.033 -824.098)"/><g transform="translate(8.98 13.764)"><path class="j" d="M722.706,561.471s-3.794-.28-5.076,5.417c-1.525,6.775.4,15.039,6.784,18.063,8.607,4.081,14.27-4.511,14.27-4.511s-2.747.521-1.647-4.105S722.706,561.471,722.706,561.471Z" transform="translate(-717.135 -561.469)"/></g><g transform="translate(25.158 30.825)"><path class="k" d="M862.816,634.676a2.168,2.168,0,0,0-2.9-.44c-2.484,1.893-4.976,3.762-7.49,5.559s-5.044,3.533-7.609,5.094a50.99,50.99,0,0,1-7.779,3.961,31.013,31.013,0,0,1-7.891,2.007,37.284,37.284,0,0,1-8.166-.117,74.376,74.376,0,0,1-8.514-1.56c-.723-.179-1.437-.335-2.164-.531l-2.173-.57c-1.458-.41-2.908-.806-4.373-1.248-2.92-.856-5.86-1.785-8.8-2.726-3.758-1.108-7.826,1.563-8.912,5.924h0c-1.084,4.353,1.281,8.642,5.247,9.385,3.138.507,6.286,1,9.483,1.441,1.588.229,3.209.421,4.816.621l2.442.262c.809.092,1.644.15,2.463.225a85.853,85.853,0,0,0,10.135.3,47.837,47.837,0,0,0,10.5-1.477,40.563,40.563,0,0,0,9.778-4.118,59.136,59.136,0,0,0,8.187-5.84c2.506-2.1,4.848-4.285,7.13-6.5s4.5-4.461,6.687-6.719A2.157,2.157,0,0,0,862.816,634.676Z" transform="translate(-785.776 -633.856)"/></g><path class="d" d="M709.577,670.81h0a21.52,21.52,0,0,1,21.28,24.719l-5.1,34.744c-9.413,3.519-21.759,3.039-32.655,0l-1.275-40.258A17.8,17.8,0,0,1,709.577,670.81Z" transform="translate(-688.77 -631.275)"/><path class="r" d="M727.837,681.23l-.257.177a21.388,21.388,0,0,1,2.264,13.284l-.474,3.229c.107,0,.212.006.315.011l.469-3.2A21.809,21.809,0,0,0,727.837,681.23Zm-1.27,35.779.309.056,1.361-9.272-.313-.017Zm-1.458-39.763a21.808,21.808,0,0,0-14.989-7.535l.055.318a21.393,21.393,0,0,1,13.671,6.309,21.622,21.622,0,0,1,2.709,3.345l.267-.165A21.646,21.646,0,0,0,725.109,677.247Zm-.365,52.187c-7.282,2.723-16.319,3.052-25.082,1.654l-.094.3a63.6,63.6,0,0,0,10.02.821,43.655,43.655,0,0,0,15.267-2.482l.174-.066,1.234-8.411-.295-.147ZM690.5,689.187l.265,8.362.315.067-.267-8.441a17.717,17.717,0,0,1,3.816-12.484l-.2-.255A18.169,18.169,0,0,0,690.5,689.187Zm.713,22.5.4,12.474c.1-.013.207-.024.312-.035l-.392-12.35Q691.377,711.731,691.214,711.687Z" transform="translate(-687.756 -630.436)"/><g transform="translate(10.337 10.15)"><g transform="translate(6.724 20.62)"><path class="q" d="M760.169,633.715l-.147,13.2a7.32,7.32,0,0,1-8.6-.1l.147-13.2Z" transform="translate(-751.421 -633.619)"/></g><g transform="translate(6.825 21.816)"><path class="k" d="M760.484,638.79l-.036,3.274a9.387,9.387,0,0,1-4.383,1.268c-.09,0-.179,0-.268,0a5.72,5.72,0,0,1-3.947-1.621l.034-3.02Z" transform="translate(-751.849 -638.694)"/></g><g transform="translate(3.297 5.103)"><path class="q" d="M752.762,571.008l-.284,8.045-.048,1.346a8.176,8.176,0,0,1-7.873,7.81,4.669,4.669,0,0,1-1.871-.32,4.432,4.432,0,0,1-1.635-1.1,13.753,13.753,0,0,1-2.268-3.495c-.12-.245-.24-.491-.354-.737a12.863,12.863,0,0,1-1.521-6.5l.982-6.8,12.371-1.477Z" transform="translate(-736.883 -567.783)"/></g><g transform="translate(1.018)"><g transform="translate(2.293)"><path class="j" d="M740.648,553.059s5.994-1.7,9.328.374c1.7,1.06,2.335,4.618,2.531,9.492,0,0,4.2-6.288.431-12.091s-13.63-6.617-16-.269Z" transform="translate(-736.939 -546.133)"/></g><g transform="translate(0 4.527)"><path class="j" d="M733.213,567.741s-2.886,3.432-2.116,9.882c0,0-2.922,1.1-3.358-1.364s-1.921-9.342,3.34-10.917Z" transform="translate(-727.211 -565.342)"/></g></g><g transform="translate(0 11.772)"><circle class="q" cx="3.13" cy="3.13" r="3.13"/></g></g><g transform="translate(8.048 48.594)"><path class="q" d="M788.183,741.773a2.168,2.168,0,0,0-2.158-1.991c-3.118.176-6.23.327-9.319.406s-6.158.1-9.156-.045a51.017,51.017,0,0,1-8.662-1.078,31.008,31.008,0,0,1-7.66-2.76,37.288,37.288,0,0,1-6.7-4.673,74.4,74.4,0,0,1-6.177-6.064c-.5-.553-1-1.082-1.494-1.652l-1.48-1.69c-.977-1.156-1.957-2.3-2.922-3.484-1.939-2.345-3.853-4.762-5.764-7.191-2.491-3.023-7.357-3.091-10.7-.088h0c-3.337,3-3.782,7.875-.913,10.713,2.315,2.178,4.643,4.354,7.047,6.508,1.187,1.08,2.422,2.147,3.641,3.214l1.875,1.585c.619.53,1.278,1.045,1.914,1.567a85.951,85.951,0,0,0,8.225,5.93,47.851,47.851,0,0,0,9.522,4.66,40.564,40.564,0,0,0,10.407,2.068,59.159,59.159,0,0,0,10.053-.249c3.251-.332,6.416-.832,9.547-1.386s6.224-1.175,9.3-1.818A2.157,2.157,0,0,0,788.183,741.773Z" transform="translate(-713.179 -709.246)"/></g></g><g transform="translate(108.251 392.391)"><path class="s" d="M237.388,1049.323a313.25,313.25,0,0,0-8.005-43.282c-3.089-11.466-7.1-22.66-11.11-33.838.5,1.407-.128,4.145-.145,5.669q-.033,3.045.031,6.09.123,5.879.6,11.744a195.932,195.932,0,0,0,8,41.58c1.792,5.826,3.874,11.562,6.206,17.193a36.347,36.347,0,0,0,1.513,4.41c.662,1.513,2.99,4.975,3.474,1.548C238.468,1056.826,237.829,1052.911,237.388,1049.323Zm-6.374-.692c.333.747.616,1.515.876,2.291Z" transform="translate(-195.472 -966.107)"/><path class="t" d="M122.038,1187.745c8.873-.147,18.437-.088,25.636,5.1,3.084,2.221,16.249,21.131,9.751,22.421-3.533.7-7.229-5.715-9.119-7.732a96.262,96.262,0,0,0-11.478-10.422A94.864,94.864,0,0,0,122.038,1187.745Z" transform="translate(-122.038 -1130.82)"/><path class="u" d="M380.66,1062.74l-13.177,41.38c-.991,3.113-3.69,8.261-7.667,5.627-3.47-2.3-1.864-7.9-1.062-11.145,1.921-7.768,6.9-15.529,11.242-22.131q2.431-3.7,5.154-7.2C376.529,1067.5,380,1064.815,380.66,1062.74Z" transform="translate(-302.138 -1035.305)"/><path class="t" d="M321.188,976.967c1.054-10.423,3.955-20.559,6.843-30.629-8.191,12.436-13.277,26.754-15.991,41.4s-3.115,29.633-2.438,44.509c.1,2.3.333,4.827,1.976,6.44,2.311,2.269,6.423,1.468,8.718-.818,2.712-2.7,3.524-6.691,4.487-10.253.845-3.127,1.766-6.293,1.387-9.561-.434-3.746-1.926-7.376-2.828-11.022a88.766,88.766,0,0,1-2.291-13.962A87.828,87.828,0,0,1,321.188,976.967Z" transform="translate(-265.174 -946.338)"/><path class="u" d="M283.627,1080.989c3.324-.077,6.077-2.908,7.128-6.062s.761-6.578.424-9.886a458.222,458.222,0,0,0-11.916-67.02q2.564,42.179,2.4,84.465C282.089,1081.507,283.2,1081.967,283.627,1080.989Z" transform="translate(-242.206 -985.84)"/><path class="s" d="M355.389,1094.28c5.934-9.923,13.392-18.832,20.817-27.695l-17.947,47.654c-1.317,3.5-8.718,22.235-14.691,15.994-2.117-2.211.107-5.4.91-7.75,1.494-4.364,2.111-8.964,3.712-13.328A88.435,88.435,0,0,1,355.389,1094.28Z" transform="translate(-290.676 -1038.244)"/><g transform="translate(21.559 80.975)"><path class="g" d="M228.7,1326.859l.272,2.058,5.41,40.689h31.385l5.41-40.689.272-2.058H228.7Z" transform="translate(-225.116 -1318.149)"/><rect class="g" width="49.91" height="8.71" transform="translate(49.91 8.71) rotate(180)"/><path class="v" d="M228.7,1326.859l.272,2.058h42.2l.272-2.058Z" transform="translate(-225.116 -1318.149)"/></g></g></g></svg>